<svg width="12" height="13" viewBox="0 0 12 13" fill="none" xmlns="http://www.w3.org/2000/svg">
<path d="M8.82842 2.14115L5.99999 4.96958L3.17156 2.14115C2.78104 1.75062 2.14787 1.75062 1.75735 2.14115C1.36683 2.53167 1.36683 3.16484 1.75735 3.55536L4.58578 6.38379L1.75735 9.21222C1.36683 9.60274 1.36683 10.2359 1.75735 10.6264C2.14787 11.017 2.78104 11.017 3.17156 10.6264L5.99999 7.798L8.82842 10.6264C9.21894 11.017 9.85211 11.017 10.2426 10.6264C10.6332 10.2359 10.6332 9.60274 10.2426 9.21222L7.4142 6.38379L10.2426 3.55536C10.6332 3.16484 10.6332 2.53167 10.2426 2.14115C9.85211 1.75062 9.21894 1.75062 8.82842 2.14115Z" fill="currentColor"/>
</svg>
