<svg width="24" height="24" viewBox="0 0 24 24" fill="none" xmlns="http://www.w3.org/2000/svg">
<path opacity="0.4" d="M10.0384 17.8623H2.50287" stroke="white" stroke-width="1.5" stroke-linecap="round" stroke-linejoin="round"/>
<path fill-rule="evenodd" clip-rule="evenodd" d="M21.4975 17.8623C21.4975 19.4529 20.1544 20.7423 18.4975 20.7423C16.8406 20.7423 15.4975 19.4529 15.4975 17.8623C15.4975 16.2705 16.8406 14.9823 18.4975 14.9823C20.1544 14.9823 21.4975 16.2705 21.4975 17.8623Z" stroke="white" stroke-width="1.5" stroke-linecap="round" stroke-linejoin="round"/>
<path opacity="0.4" d="M13.9608 6.1378H21.4976" stroke="white" stroke-width="1.5" stroke-linecap="round" stroke-linejoin="round"/>
<path fill-rule="evenodd" clip-rule="evenodd" d="M2.50238 6.13781C2.50238 7.72958 3.84552 9.01781 5.50238 9.01781C7.15924 9.01781 8.50238 7.72958 8.50238 6.13781C8.50238 4.54722 7.15924 3.25781 5.50238 3.25781C3.84552 3.25781 2.50238 4.54722 2.50238 6.13781Z" stroke="white" stroke-width="1.5" stroke-linecap="round" stroke-linejoin="round"/>
</svg>
