<svg width="28" height="28" viewBox="0 0 28 28" fill="none" xmlns="http://www.w3.org/2000/svg">
<g opacity="0.201651">
<g clip-path="url(#clip0_141_223)">
<g opacity="0.201651">
<path d="M2 14C2 7.37258 7.37258 2 14 2C20.6274 2 26 7.37258 26 14C26 20.6274 20.6274 26 14 26C7.37258 26 2 20.6274 2 14Z" stroke="#48453E" stroke-linecap="round" stroke-linejoin="round" stroke-dasharray="2 4"/>
<path d="M12 19L17 14L12 9" stroke="#CACACA" stroke-width="1.5" stroke-linecap="round" stroke-linejoin="round"/>
</g>
</g>
<path d="M1 14C1 6.8203 6.8203 1 14 1V1C21.1797 1 27 6.8203 27 14V14C27 21.1797 21.1797 27 14 27V27C6.8203 27 1 21.1797 1 14V14Z" stroke="#9D9D9D" stroke-linecap="round" stroke-linejoin="round" stroke-dasharray="2 4"/>
</g>
<defs>
<clipPath id="clip0_141_223">
<path d="M1 14C1 6.8203 6.8203 1 14 1V1C21.1797 1 27 6.8203 27 14V14C27 21.1797 21.1797 27 14 27V27C6.8203 27 1 21.1797 1 14V14Z" fill="white"/>
</clipPath>
</defs>
</svg>
