<svg width="25" height="25" viewBox="0 0 25 25" fill="none" xmlns="http://www.w3.org/2000/svg">
<path opacity="0.4" d="M10.5387 18.4866H3.00317" stroke="white" stroke-width="1.5" stroke-linecap="round" stroke-linejoin="round"/>
<path fill-rule="evenodd" clip-rule="evenodd" d="M21.9978 18.4866C21.9978 20.0772 20.6547 21.3666 18.9978 21.3666C17.3409 21.3666 15.9978 20.0772 15.9978 18.4866C15.9978 16.8948 17.3409 15.6066 18.9978 15.6066C20.6547 15.6066 21.9978 16.8948 21.9978 18.4866Z" stroke="white" stroke-width="1.5" stroke-linecap="round" stroke-linejoin="round"/>
<path opacity="0.4" d="M14.4612 6.76212H21.9979" stroke="white" stroke-width="1.5" stroke-linecap="round" stroke-linejoin="round"/>
<path fill-rule="evenodd" clip-rule="evenodd" d="M3.00269 6.76211C3.00269 8.35388 4.34582 9.64211 6.00269 9.64211C7.65955 9.64211 9.00269 8.35388 9.00269 6.76211C9.00269 5.17152 7.65955 3.88211 6.00269 3.88211C4.34582 3.88211 3.00269 5.17152 3.00269 6.76211Z" stroke="white" stroke-width="1.5" stroke-linecap="round" stroke-linejoin="round"/>
</svg>
