<svg width="17" height="17" viewBox="0 0 17 17" fill="none" xmlns="http://www.w3.org/2000/svg">
<path d="M13.9194 7.83706H9.91943V3.83706C9.91943 3.28478 9.47172 2.83706 8.91943 2.83706C8.36715 2.83706 7.91943 3.28478 7.91943 3.83706V7.83706H3.91943C3.36715 7.83706 2.91943 8.28478 2.91943 8.83706C2.91943 9.38935 3.36715 9.83706 3.91943 9.83706H7.91943V13.8371C7.91943 14.3893 8.36715 14.8371 8.91943 14.8371C9.47172 14.8371 9.91943 14.3893 9.91943 13.8371V9.83706H13.9194C14.4717 9.83706 14.9194 9.38935 14.9194 8.83706C14.9194 8.28478 14.4717 7.83706 13.9194 7.83706Z" fill="#B8971D"/>
</svg>
